<mxfile host="app.diagrams.net" agent="Mozilla/5.0 (Macintosh; Intel Mac OS X 10_15_7) AppleWebKit/537.36 (KHTML, like Gecko) Chrome/129.0.0.0 Safari/537.36" version="24.8.0">
  <diagram name="第 1 页" id="fCY67Eoo68kghh-t7dm0">
    <mxGraphModel dx="1468" dy="1060" grid="1" gridSize="10" guides="1" tooltips="1" connect="1" arrows="1" fold="1" page="1" pageScale="1" pageWidth="1169" pageHeight="827" math="0" shadow="0">
      <root>
        <mxCell id="0" />
        <mxCell id="1" parent="0" />
        <mxCell id="MYxFHttf6cau_26ObYl6-1" value="&lt;p style=&quot;margin:0px;margin-top:4px;text-align:center;&quot;&gt;&lt;b&gt;Process&lt;/b&gt;&lt;/p&gt;&lt;hr size=&quot;1&quot; style=&quot;border-style:solid;&quot;&gt;&lt;p style=&quot;margin:0px;margin-left:4px;&quot;&gt;_pid: int&lt;/p&gt;&lt;p style=&quot;margin:0px;margin-left:4px;&quot;&gt;_next_id: int, static&lt;/p&gt;&lt;p style=&quot;margin:0px;margin-left:4px;&quot;&gt;_name: str&lt;br&gt;_arrive_time: int&lt;/p&gt;&lt;p style=&quot;margin:0px;margin-left:4px;&quot;&gt;_tot_time: int&lt;/p&gt;&lt;p style=&quot;margin:0px;margin-left:4px;&quot;&gt;_que_id: int&lt;/p&gt;&lt;p style=&quot;margin:0px;margin-left:4px;&quot;&gt;&lt;br&gt;&lt;/p&gt;&lt;p style=&quot;margin:0px;margin-left:4px;&quot;&gt;_run_time: int&lt;/p&gt;&lt;p style=&quot;margin:0px;margin-left:4px;&quot;&gt;&lt;br&gt;&lt;/p&gt;&lt;hr size=&quot;1&quot; style=&quot;border-style:solid;&quot;&gt;&lt;p style=&quot;margin:0px;margin-left:4px;&quot;&gt;debug_brief(): None&lt;/p&gt;&lt;p style=&quot;margin:0px;margin-left:4px;&quot;&gt;_check_consistency(): None&lt;/p&gt;&lt;p style=&quot;margin:0px;margin-left:4px;&quot;&gt;run_for_1clck(): None&lt;/p&gt;&lt;p style=&quot;margin:0px;margin-left:4px;&quot;&gt;&lt;br&gt;&lt;/p&gt;&lt;p style=&quot;margin:0px;margin-left:4px;&quot;&gt;get_pid(): int&lt;br&gt;get_que_id(): int&lt;/p&gt;&lt;p style=&quot;margin:0px;margin-left:4px;&quot;&gt;get_name(): str&lt;br&gt;is_ dead(): bool&lt;/p&gt;&lt;p style=&quot;margin:0px;margin-left:4px;&quot;&gt;&lt;br&gt;&lt;/p&gt;&lt;p style=&quot;margin:0px;margin-left:4px;&quot;&gt;time_get_waiting(): int&lt;/p&gt;&lt;p style=&quot;margin:0px;margin-left:4px;&quot;&gt;time_get_rest(): int&lt;/p&gt;&lt;p style=&quot;margin:0px;margin-left:4px;&quot;&gt;time_get_arrive(): int&lt;/p&gt;&lt;p style=&quot;margin:0px;margin-left:4px;&quot;&gt;time_get_total(): int&lt;/p&gt;&lt;p style=&quot;margin:0px;margin-left:4px;&quot;&gt;time_get_run(): int&lt;/p&gt;" style="verticalAlign=top;align=left;overflow=fill;html=1;whiteSpace=wrap;" parent="1" vertex="1">
          <mxGeometry x="160" y="30" width="240" height="390" as="geometry" />
        </mxCell>
        <mxCell id="MYxFHttf6cau_26ObYl6-6" value="&lt;p style=&quot;margin:0px;margin-top:4px;text-align:center;&quot;&gt;&lt;b&gt;_PCB&lt;/b&gt;&lt;/p&gt;&lt;hr size=&quot;1&quot; style=&quot;border-style:solid;&quot;&gt;&lt;p style=&quot;margin:0px;margin-left:4px;&quot;&gt;process: Process&lt;/p&gt;&lt;p style=&quot;margin:0px;margin-left:4px;&quot;&gt;priority: float&lt;/p&gt;&lt;p style=&quot;margin:0px;margin-left:4px;&quot;&gt;&lt;br&gt;&lt;/p&gt;&lt;hr size=&quot;1&quot; style=&quot;border-style:solid;&quot;&gt;&lt;p style=&quot;margin:0px;margin-left:4px;&quot;&gt;__lt__(): bool&lt;/p&gt;&lt;p style=&quot;margin:0px;margin-left:4px;&quot;&gt;&lt;br&gt;&lt;/p&gt;&lt;p style=&quot;margin:0px;margin-left:4px;&quot;&gt;&lt;br&gt;&lt;/p&gt;" style="verticalAlign=top;align=left;overflow=fill;html=1;whiteSpace=wrap;" parent="1" vertex="1">
          <mxGeometry x="490" y="165" width="240" height="120" as="geometry" />
        </mxCell>
        <mxCell id="MYxFHttf6cau_26ObYl6-7" value="&lt;p style=&quot;margin:0px;margin-top:4px;text-align:center;&quot;&gt;&lt;b&gt;_PCBHeap&lt;/b&gt;&lt;/p&gt;&lt;hr size=&quot;1&quot; style=&quot;border-style:solid;&quot;&gt;&lt;p style=&quot;margin:0px;margin-left:4px;&quot;&gt;_heap: List[_PCB]&lt;/p&gt;&lt;p style=&quot;margin:0px;margin-left:4px;&quot;&gt;&lt;br&gt;&lt;/p&gt;&lt;hr size=&quot;1&quot; style=&quot;border-style:solid;&quot;&gt;&lt;p style=&quot;margin:0px;margin-left:4px;&quot;&gt;push(_PCB): none&lt;/p&gt;&lt;p style=&quot;margin:0px;margin-left:4px;&quot;&gt;pop(): Optional[_PCB]&lt;/p&gt;&lt;p style=&quot;margin:0px;margin-left:4px;&quot;&gt;peek() -&amp;gt;&amp;nbsp;&lt;span style=&quot;background-color: initial;&quot;&gt;Optional[_PCB]&lt;/span&gt;&lt;/p&gt;&lt;p style=&quot;margin:0px;margin-left:4px;&quot;&gt;__len__(): int&lt;/p&gt;&lt;p style=&quot;margin:0px;margin-left:4px;&quot;&gt;__bool__(): bool&lt;/p&gt;&lt;p style=&quot;margin:0px;margin-left:4px;&quot;&gt;&lt;br&gt;&lt;/p&gt;" style="verticalAlign=top;align=left;overflow=fill;html=1;whiteSpace=wrap;" parent="1" vertex="1">
          <mxGeometry x="870" y="145" width="240" height="160" as="geometry" />
        </mxCell>
        <mxCell id="MYxFHttf6cau_26ObYl6-15" value="&lt;p style=&quot;margin:0px;margin-top:4px;text-align:center;&quot;&gt;&lt;b&gt;CPU&lt;/b&gt;&lt;/p&gt;&lt;hr size=&quot;1&quot; style=&quot;border-style:solid;&quot;&gt;&lt;p style=&quot;margin:0px;margin-left:4px;&quot;&gt;jame_waiting_list: bool&lt;/p&gt;&lt;p style=&quot;margin:0px;margin-left:4px;&quot;&gt;open_random_interrupt: bool&lt;/p&gt;&lt;p style=&quot;margin:0px;margin-left:4px;&quot;&gt;&lt;br&gt;&lt;/p&gt;&lt;p style=&quot;margin:0px;margin-left:4px;&quot;&gt;_que_list: List[ReadyQue]&lt;/p&gt;&lt;p style=&quot;margin:0px;margin-left:4px;&quot;&gt;_process_on_core: Process&lt;/p&gt;&lt;p style=&quot;margin:0px;margin-left:4px;&quot;&gt;_scheduled_time: int&lt;/p&gt;&lt;p style=&quot;margin:0px;margin-left:4px;&quot;&gt;_open4interrupt: bool&lt;/p&gt;&lt;p style=&quot;margin:0px;margin-left:4px;&quot;&gt;_user_require_interrupt: bool&lt;/p&gt;&lt;p style=&quot;margin:0px;margin-left:4px;&quot;&gt;&lt;br&gt;&lt;/p&gt;&lt;p style=&quot;margin:0px;margin-left:4px;&quot;&gt;&lt;br&gt;&lt;/p&gt;&lt;p style=&quot;margin:0px;margin-left:4px;&quot;&gt;_waiting_list: ReadyQue&lt;/p&gt;&lt;p style=&quot;margin:0px;margin-left:4px;&quot;&gt;completed_ls: List[Any]&lt;/p&gt;&lt;p style=&quot;margin:0px;margin-left:4px;&quot;&gt;&lt;br&gt;&lt;/p&gt;&lt;hr size=&quot;1&quot; style=&quot;border-style:solid;&quot;&gt;&lt;p style=&quot;margin:0px;margin-left:4px;&quot;&gt;__lt__(): bool&lt;/p&gt;&lt;p style=&quot;margin:0px;margin-left:4px;&quot;&gt;_get_next_process(): Union(Process, int)&lt;/p&gt;&lt;p style=&quot;margin:0px;margin-left:4px;&quot;&gt;run_for1clk(): None&lt;/p&gt;&lt;p style=&quot;margin:0px;margin-left:4px;&quot;&gt;_brief(): None&lt;/p&gt;&lt;p style=&quot;margin:0px;margin-left:4px;&quot;&gt;_awake_waiting_list(): None&lt;/p&gt;&lt;p style=&quot;margin:0px;margin-left:4px;&quot;&gt;_throw_away(): None&lt;/p&gt;&lt;p style=&quot;margin:0px;margin-left:4px;&quot;&gt;_interrupt_happen&lt;/p&gt;&lt;p style=&quot;margin:0px;margin-left:4px;&quot;&gt;&lt;br&gt;&lt;/p&gt;&lt;p style=&quot;margin:0px;margin-left:4px;&quot;&gt;get_now_onboard(): Optional[Process]&lt;/p&gt;&lt;p style=&quot;margin:0px;margin-left:4px;&quot;&gt;get_waiting_list(): List[Any]&lt;/p&gt;&lt;p style=&quot;margin:0px;margin-left:4px;&quot;&gt;generate_and_save_table(): None&lt;/p&gt;&lt;p style=&quot;margin:0px;margin-left:4px;&quot;&gt;&lt;br&gt;&lt;/p&gt;&lt;p style=&quot;margin:0px;margin-left:4px;&quot;&gt;&lt;br&gt;&lt;/p&gt;&lt;p style=&quot;margin:0px;margin-left:4px;&quot;&gt;&lt;br&gt;&lt;/p&gt;" style="verticalAlign=top;align=left;overflow=fill;html=1;whiteSpace=wrap;" parent="1" vertex="1">
          <mxGeometry x="490" y="410" width="240" height="400" as="geometry" />
        </mxCell>
        <mxCell id="s67_5QUoR7Oh0PQ4rVIH-1" value="" style="endArrow=open;endFill=1;endSize=12;html=1;rounded=0;entryX=0.5;entryY=1;entryDx=0;entryDy=0;exitX=0;exitY=0.25;exitDx=0;exitDy=0;" parent="1" source="MYxFHttf6cau_26ObYl6-15" target="MYxFHttf6cau_26ObYl6-1" edge="1">
          <mxGeometry width="160" relative="1" as="geometry">
            <mxPoint x="250" y="550" as="sourcePoint" />
            <mxPoint x="410" y="550" as="targetPoint" />
            <Array as="points">
              <mxPoint x="350" y="510" />
            </Array>
          </mxGeometry>
        </mxCell>
        <mxCell id="s67_5QUoR7Oh0PQ4rVIH-3" value="&lt;p style=&quot;margin:0px;margin-top:4px;text-align:center;&quot;&gt;&lt;b&gt;ReadyQue&lt;/b&gt;&lt;/p&gt;&lt;hr size=&quot;1&quot; style=&quot;border-style:solid;&quot;&gt;&lt;p style=&quot;margin:0px;margin-left:4px;&quot;&gt;_algorithm: str&lt;/p&gt;&lt;p style=&quot;margin:0px;margin-left:4px;&quot;&gt;_que_priority: int&lt;/p&gt;&lt;p style=&quot;margin:0px;margin-left:4px;&quot;&gt;_time_clip: int&lt;/p&gt;&lt;p style=&quot;margin:0px;margin-left:4px;&quot;&gt;_pcb_heap&lt;/p&gt;&lt;p style=&quot;margin:0px;margin-left:4px;&quot;&gt;_que_tot_time&lt;/p&gt;&lt;hr size=&quot;1&quot; style=&quot;border-style:solid;&quot;&gt;&lt;p style=&quot;margin:0px;margin-left:4px;&quot;&gt;__lt__(): bool&lt;/p&gt;&lt;p style=&quot;margin:0px;margin-left:4px;&quot;&gt;_process2pcb(Process): _PCB&lt;/p&gt;&lt;p style=&quot;margin:0px;margin-left:4px;&quot;&gt;offer(Process): none&lt;/p&gt;&lt;p style=&quot;margin:0px;margin-left:4px;&quot;&gt;pop(): Union[Process, int]&lt;/p&gt;&lt;p style=&quot;margin:0px;margin-left:4px;&quot;&gt;&lt;br&gt;&lt;/p&gt;&lt;p style=&quot;margin:0px;margin-left:4px;&quot;&gt;get_que_tot_time(): int&lt;/p&gt;&lt;p style=&quot;margin:0px;margin-left:4px;&quot;&gt;get_que_priority(): int&lt;/p&gt;&lt;p style=&quot;margin:0px;margin-left:4px;&quot;&gt;get_que_list(): List[Any]&lt;/p&gt;&lt;p style=&quot;margin:0px;margin-left:4px;&quot;&gt;&lt;br&gt;&lt;/p&gt;&lt;p style=&quot;margin:0px;margin-left:4px;&quot;&gt;&lt;br&gt;&lt;/p&gt;&lt;p style=&quot;margin:0px;margin-left:4px;&quot;&gt;&lt;br&gt;&lt;/p&gt;" style="verticalAlign=top;align=left;overflow=fill;html=1;whiteSpace=wrap;" parent="1" vertex="1">
          <mxGeometry x="870" y="400" width="240" height="250" as="geometry" />
        </mxCell>
        <mxCell id="6PP9cDkvr4qk9Si9dZ5j-1" value="" style="endArrow=diamondThin;endFill=0;endSize=24;html=1;rounded=0;" parent="1" source="s67_5QUoR7Oh0PQ4rVIH-3" edge="1">
          <mxGeometry width="160" relative="1" as="geometry">
            <mxPoint x="840" y="530" as="sourcePoint" />
            <mxPoint x="870" y="530" as="targetPoint" />
          </mxGeometry>
        </mxCell>
        <mxCell id="6PP9cDkvr4qk9Si9dZ5j-4" value="" style="endArrow=open;html=1;endSize=12;startArrow=diamondThin;startSize=14;startFill=0;edgeStyle=orthogonalEdgeStyle;align=left;verticalAlign=bottom;rounded=0;" parent="1" edge="1">
          <mxGeometry x="-1" y="3" relative="1" as="geometry">
            <mxPoint x="730" y="540" as="sourcePoint" />
            <mxPoint x="870" y="540" as="targetPoint" />
          </mxGeometry>
        </mxCell>
        <mxCell id="6PP9cDkvr4qk9Si9dZ5j-7" value="polymerization" style="edgeLabel;html=1;align=center;verticalAlign=middle;resizable=0;points=[];" parent="6PP9cDkvr4qk9Si9dZ5j-4" vertex="1" connectable="0">
          <mxGeometry x="-0.0894" y="3" relative="1" as="geometry">
            <mxPoint as="offset" />
          </mxGeometry>
        </mxCell>
        <mxCell id="6PP9cDkvr4qk9Si9dZ5j-8" value="" style="endArrow=open;endFill=1;endSize=12;html=1;rounded=0;entryX=0.5;entryY=1;entryDx=0;entryDy=0;exitX=0.5;exitY=0;exitDx=0;exitDy=0;" parent="1" source="s67_5QUoR7Oh0PQ4rVIH-3" target="MYxFHttf6cau_26ObYl6-7" edge="1">
          <mxGeometry width="160" relative="1" as="geometry">
            <mxPoint x="910" y="370" as="sourcePoint" />
            <mxPoint x="1070" y="370" as="targetPoint" />
          </mxGeometry>
        </mxCell>
        <mxCell id="6PP9cDkvr4qk9Si9dZ5j-12" value="asscoiation" style="edgeLabel;html=1;align=center;verticalAlign=middle;resizable=0;points=[];" parent="6PP9cDkvr4qk9Si9dZ5j-8" vertex="1" connectable="0">
          <mxGeometry x="0.0453" y="2" relative="1" as="geometry">
            <mxPoint as="offset" />
          </mxGeometry>
        </mxCell>
        <mxCell id="6PP9cDkvr4qk9Si9dZ5j-10" value="" style="endArrow=open;html=1;endSize=12;startArrow=diamondThin;startSize=14;startFill=0;edgeStyle=orthogonalEdgeStyle;align=left;verticalAlign=bottom;rounded=0;exitX=0;exitY=0.5;exitDx=0;exitDy=0;" parent="1" source="MYxFHttf6cau_26ObYl6-7" edge="1">
          <mxGeometry x="-0.0052" y="65" relative="1" as="geometry">
            <mxPoint x="860" y="224.5" as="sourcePoint" />
            <mxPoint x="730" y="224.5" as="targetPoint" />
            <Array as="points">
              <mxPoint x="820" y="225" />
            </Array>
            <mxPoint as="offset" />
          </mxGeometry>
        </mxCell>
        <mxCell id="6PP9cDkvr4qk9Si9dZ5j-13" value="polymerization" style="edgeLabel;html=1;align=center;verticalAlign=middle;resizable=0;points=[];" parent="1" vertex="1" connectable="0">
          <mxGeometry x="804" y="225" as="geometry" />
        </mxCell>
        <mxCell id="6PP9cDkvr4qk9Si9dZ5j-14" value="" style="endArrow=open;endFill=1;endSize=12;html=1;rounded=0;entryX=1.009;entryY=0.692;entryDx=0;entryDy=0;entryPerimeter=0;" parent="1" edge="1">
          <mxGeometry width="160" relative="1" as="geometry">
            <mxPoint x="487.84000000000003" y="224.07" as="sourcePoint" />
            <mxPoint x="399.9999999999999" y="223.94999999999987" as="targetPoint" />
            <Array as="points" />
          </mxGeometry>
        </mxCell>
        <mxCell id="6PP9cDkvr4qk9Si9dZ5j-15" value="asscoiation" style="edgeLabel;html=1;align=center;verticalAlign=middle;resizable=0;points=[];" parent="1" vertex="1" connectable="0">
          <mxGeometry x="449.99999999999955" y="219.99631578947375" as="geometry" />
        </mxCell>
        <mxCell id="6PP9cDkvr4qk9Si9dZ5j-16" value="asscoiation" style="edgeLabel;html=1;align=center;verticalAlign=middle;resizable=0;points=[];" parent="1" vertex="1" connectable="0">
          <mxGeometry x="399.99999999999955" y="509.9963157894738" as="geometry" />
        </mxCell>
      </root>
    </mxGraphModel>
  </diagram>
</mxfile>
